<svg xmlns="http://www.w3.org/2000/svg" xmlns:xlink="http://www.w3.org/1999/xlink" version="1.1" width="256" height="256" viewBox="0 0 256 256" xml:space="preserve">

<defs>
</defs>
<g style="stroke: none; stroke-width: 0; stroke-dasharray: none; stroke-linecap: butt; stroke-linejoin: miter; stroke-miterlimit: 10; fill: none; fill-rule: nonzero; opacity: 1;" transform="translate(1.4065934065934016 1.4065934065934016) scale(2.81 2.81)" >
	<circle cx="45" cy="45" r="43" style="stroke: none; stroke-width: 1; stroke-dasharray: none; stroke-linecap: butt; stroke-linejoin: miter; stroke-miterlimit: 10; fill: rgb(239,221,0); fill-rule: nonzero; opacity: 1;" transform="  matrix(1 0 0 1 0 0) "/>
	<circle cx="28.305" cy="37.214999999999996" r="3.735" style="stroke: none; stroke-width: 1; stroke-dasharray: none; stroke-linecap: butt; stroke-linejoin: miter; stroke-miterlimit: 10; fill: rgb(0,0,0); fill-rule: nonzero; opacity: 1;" transform="  matrix(1 0 0 1 0 0) "/>
	<circle cx="61.695" cy="37.214999999999996" r="3.735" style="stroke: none; stroke-width: 1; stroke-dasharray: none; stroke-linecap: butt; stroke-linejoin: miter; stroke-miterlimit: 10; fill: rgb(0,0,0); fill-rule: nonzero; opacity: 1;" transform="  matrix(1 0 0 1 0 0) "/>
	<path d="M 45 90 C 20.187 90 0 69.813 0 45 C 0 20.187 20.187 0 45 0 c 24.813 0 45 20.187 45 45 C 90 69.813 69.813 90 45 90 z M 45 4 C 22.393 4 4 22.393 4 45 s 18.393 41 41 41 s 41 -18.393 41 -41 S 67.607 4 45 4 z" style="stroke: none; stroke-width: 1; stroke-dasharray: none; stroke-linecap: butt; stroke-linejoin: miter; stroke-miterlimit: 10; fill: rgb(0,0,0); fill-rule: nonzero; opacity: 1;" transform=" matrix(1 0 0 1 0 0) " stroke-linecap="round" />
	<path d="M 23.409 68.238 c -0.507 0 -1.015 -0.191 -1.405 -0.576 c -0.786 -0.776 -0.794 -2.043 -0.019 -2.829 c 6.135 -6.216 14.309 -9.64 23.015 -9.64 s 16.88 3.424 23.015 9.64 c 0.775 0.787 0.768 2.053 -0.019 2.829 c -0.786 0.774 -2.053 0.768 -2.829 -0.019 c -5.377 -5.449 -12.539 -8.45 -20.167 -8.45 c -7.627 0 -14.79 3.001 -20.168 8.45 C 24.441 68.04 23.925 68.238 23.409 68.238 z" style="stroke: none; stroke-width: 1; stroke-dasharray: none; stroke-linecap: butt; stroke-linejoin: miter; stroke-miterlimit: 10; fill: rgb(0,0,0); fill-rule: nonzero; opacity: 1;" transform=" matrix(1 0 0 1 0 0) " stroke-linecap="round" />
	<path d="M 26.406 24.467 c -0.947 0 -1.789 -0.676 -1.965 -1.641 c -0.199 -1.086 0.521 -2.128 1.607 -2.327 l 10.289 -1.883 c 1.081 -0.201 2.128 0.52 2.327 1.607 c 0.199 1.086 -0.521 2.128 -1.607 2.327 l -10.289 1.883 C 26.647 24.456 26.526 24.467 26.406 24.467 z" style="stroke: none; stroke-width: 1; stroke-dasharray: none; stroke-linecap: butt; stroke-linejoin: miter; stroke-miterlimit: 10; fill: rgb(0,0,0); fill-rule: nonzero; opacity: 1;" transform=" matrix(1 0 0 1 0 0) " stroke-linecap="round" />
	<path d="M 64.593 30.239 c -0.119 0 -0.24 -0.011 -0.362 -0.033 l -10.289 -1.883 c -1.086 -0.199 -1.806 -1.241 -1.607 -2.327 c 0.199 -1.086 1.237 -1.808 2.328 -1.607 l 10.289 1.883 c 1.086 0.199 1.806 1.241 1.607 2.327 C 66.382 29.563 65.54 30.239 64.593 30.239 z" style="stroke: none; stroke-width: 1; stroke-dasharray: none; stroke-linecap: butt; stroke-linejoin: miter; stroke-miterlimit: 10; fill: rgb(0,0,0); fill-rule: nonzero; opacity: 1;" transform=" matrix(1 0 0 1 0 0) " stroke-linecap="round" />
</g>
</svg>